<svg width="1967" height="1921" viewBox="0 0 1967 1921" version="1.1" xmlns="http://www.w3.org/2000/svg" xmlns:xlink="http://www.w3.org/1999/xlink" xml:space="preserve" xmlns:serif="http://www.serif.com/" style="fill-rule:evenodd;clip-rule:evenodd;stroke-linejoin:round;stroke-miterlimit:2;"><g><path d="M983.183,3.021c-542.925,-0 -983.183,440.162 -983.183,983.183c0,434.392 281.708,802.925 672.363,932.938c49.129,9.095 67.174,-21.338 67.174,-47.3c0,-23.438 -0.908,-100.9 -1.333,-183.05c-273.521,59.479 -331.242,-116.004 -331.242,-116.004c-44.725,-113.634 -109.162,-143.863 -109.162,-143.863c-89.212,-61.021 6.721,-59.767 6.721,-59.767c98.721,6.934 150.717,101.329 150.717,101.329c87.679,150.3 230.004,106.846 286.112,81.725c8.825,-63.537 34.296,-106.924 62.421,-131.475c-218.379,-24.849 -447.954,-109.166 -447.954,-485.891c-0,-107.338 38.412,-195.046 101.312,-263.9c-10.208,-24.771 -43.867,-124.763 9.525,-260.196c0,-0 82.567,-26.408 270.434,100.796c78.433,-21.792 162.541,-32.713 246.095,-33.096c83.546,0.383 167.725,11.304 246.3,33.096c187.663,-127.204 270.1,-100.796 270.1,-100.796c53.517,135.433 19.859,235.425 9.655,260.196c63.041,68.854 101.183,156.562 101.183,263.9c-0,377.633 -230.004,460.771 -448.942,485.112c35.267,30.513 66.684,90.342 66.684,182.067c-0,131.554 -1.13,237.429 -1.13,269.817c0,26.17 17.696,56.825 67.525,47.175c390.446,-130.159 671.805,-498.567 671.805,-932.813c-0,-543.021 -440.196,-983.183 -983.18,-983.183Z" style="fill:#181717;"/></g></svg>