<svg width="685" height="236" viewBox="0 0 685 236" version="1.1" xmlns="http://www.w3.org/2000/svg" xmlns:xlink="http://www.w3.org/1999/xlink" xml:space="preserve" xmlns:serif="http://www.serif.com/" style="fill-rule:evenodd;clip-rule:evenodd;stroke-linejoin:round;stroke-miterlimit:2;">
<rect id="Artboard1" x="0" y="0" width="684.225" height="235.85" style="fill:none;"/>
<clipPath id="_clip1">
<rect x="0" y="0" width="684.225" height="235.85"/>
</clipPath>
<g clip-path="url(#_clip1)">
<g>
<rect x="0.388" y="0.304" width="684.225" height="235.85" style="fill:#006fba;fill-rule:nonzero;"/>
<path d="M342.5,230.021c186.229,-0 337.208,-50.05 337.208,-111.792c0,-61.742 -150.979,-111.792 -337.208,-111.792c-186.233,0 -337.208,50.05 -337.208,111.792c-0,61.742 150.975,111.792 337.208,111.792Z" style="fill:#ffea1c;fill-rule:nonzero;"/>
<path d="M156.433,164.663c1.6,-0 2.238,-0.638 1.388,-1.596c-0.667,-0.754 -1.813,-5.863 -1.813,-11.3l0,-63.513c0,-5.433 1.146,-10.542 1.813,-11.296c0.85,-0.958 0.212,-1.596 -1.388,-1.596l-57.437,0c-1.6,0 -2.238,0.638 -1.388,1.596c0.671,0.754 1.813,5.863 1.813,11.296l-0,63.513c-0,5.437 -1.142,10.546 -1.813,11.3c-0.85,0.958 -0.212,1.596 1.388,1.596l57.437,-0Z" style="fill:#006bb7;fill-rule:nonzero;"/>
<path d="M242.917,107.237l20.904,-28.362c0.85,-0.85 0.425,-2.025 0.425,-2.558c-0,-0.529 -0,-0.955 0.425,-0.955l56.696,0c0.745,0 0.425,0.53 0.104,0.955l-23.338,32.612c-1.066,1.383 -0.85,2.667 0.213,4.05l32.079,50.725c0.317,0.425 0.638,0.959 -0.108,0.959l-69.267,-0c-0.429,-0 -0.429,-0.43 -0.429,-0.959c-0,-0.533 1.066,-5.116 0.216,-5.966l-17.904,-27.401l0,21.43c0,5.437 1.142,10.546 1.813,11.3c0.85,0.958 0.212,1.596 -1.388,1.596l-55.733,-0c-1.6,-0 -2.238,-0.638 -1.388,-1.596c0.671,-0.754 1.813,-5.863 1.813,-11.3l-0,-63.513c-0,-5.433 -1.142,-10.542 -1.813,-11.296c-0.85,-0.958 -0.212,-1.596 1.388,-1.596l55.733,0c1.6,0 2.238,0.638 1.388,1.596c-0.671,0.754 -1.813,5.863 -1.813,11.296l-0.016,18.983Z" style="fill:#006bb7;fill-rule:nonzero;"/>
<path d="M403.742,131.508c-0,-0.358 0.133,-1.6 1.6,-1.6l22.058,0c2.279,0 10.475,-0.279 11.179,0.421c0.7,0.709 1.579,0.267 1.579,-1.071l0,-21.404c0,-1.337 -0.879,-1.779 -1.583,-1.071c-0.7,0.705 -8.896,0.425 -11.175,0.425l-22.058,0c-1.467,0 -1.604,-1.246 -1.604,-1.604l0.008,-4.333c-0,-0.358 0.137,-1.604 1.6,-1.604l31.7,-0c5.379,-0 10.433,1.133 11.179,1.791c0.946,0.846 1.579,0.213 1.579,-1.366l0,-24.742l-99.854,-0c-1.583,-0 -2.217,0.796 -1.371,1.742c0.659,0.745 1.792,5.804 1.792,11.179l-0,62.846c-0,5.379 -1.133,10.433 -1.792,11.179c-0.846,0.95 -0.216,1.579 1.367,1.579l99.854,-0.004l0,-26.283c0,-1.584 -0.633,-2.217 -1.579,-1.371c-0.746,0.662 -5.8,1.791 -11.184,1.791l-31.695,0c-1.467,0 -1.604,-1.241 -1.604,-1.604l0.004,-4.896Z" style="fill:#006bb7;fill-rule:nonzero;"/>
<path d="M608.021,163.875c-0,0 -33.167,-78.817 -33.642,-80.125c-0.479,-1.304 -0.95,-3.562 -0.121,-5.583c0.834,-2.021 0.121,-2.496 -1.308,-2.496l-77.629,-0c-1.425,-0 -2.138,0.475 -1.304,2.496c0.829,2.021 0.354,4.279 -0.121,5.583c-0.475,1.308 -29.838,80.125 -29.838,80.125l47.73,0c1.129,0 1.366,-0.533 1.008,-1.304c-0.354,-0.775 -0.354,-2.559 0.179,-3.867l2.558,-8.5c0.829,-2.375 2.021,-2.733 4.042,-2.733l20.979,-0c2.021,-0 3.213,0.358 4.042,2.733l2.558,8.5c0.533,1.308 0.533,3.092 0.179,3.867c-0.358,0.771 -0.12,1.304 1.013,1.304l59.675,0Zm-84.613,-33.817c-0.745,-0.062 -0.833,-0.837 -0.625,-1.37l5.171,-12.246c0.208,-0.355 0.329,-0.713 0.775,-0.713c0.446,0 0.563,0.358 0.771,0.713l5.171,12.246c0.208,0.533 0.117,1.308 -0.621,1.37l-10.642,0Z" style="fill:#006bb7;fill-rule:nonzero;"/>
</g>
</g>
</svg>