<?xml version="1.0" encoding="UTF-8" standalone="no"?><!DOCTYPE svg PUBLIC "-//W3C//DTD SVG 1.1//EN" "http://www.w3.org/Graphics/SVG/1.1/DTD/svg11.dtd"><svg width="100%" height="100%" viewBox="0 0 1577 1577" version="1.1" xmlns="http://www.w3.org/2000/svg" xmlns:xlink="http://www.w3.org/1999/xlink" xml:space="preserve" xmlns:serif="http://www.serif.com/" style="fill-rule:evenodd;clip-rule:evenodd;stroke-linejoin:round;stroke-miterlimit:2;"><rect id="Artboard1" x="0" y="0" width="1576.55" height="1576.56" style="fill:none;"/><clipPath id="_clip1"><rect x="0" y="0" width="1576.55" height="1576.56"/></clipPath><g clip-path="url(#_clip1)"><g id="Layer-1" serif:id="Layer 1"><path d="M1579.94,791.669c-0,435.35 -352.929,788.279 -788.279,788.279c-435.367,-0 -788.275,-352.929 -788.275,-788.279c-0,-435.363 352.908,-788.279 788.275,-788.279c435.35,-0 788.279,352.916 788.279,788.279Zm-1049.41,145.864c-0,95.679 -0.204,191.366 0.246,287.054c0.046,11.879 -2.346,16.112 -15.3,15.941c-57.504,-0.766 -115.025,-0.587 -172.534,-0.108c-10.679,0.092 -14.279,-2.579 -14.266,-13.8c0.279,-192.946 0.229,-385.879 -0.054,-578.821c-0.013,-10.05 2.437,-13.408 12.983,-13.312c58.567,0.5 117.133,0.562 175.683,-0.042c11.688,-0.129 13.504,4.137 13.463,14.462c-0.359,96.217 -0.204,192.417 -0.221,288.626Zm312.065,-220.16c3.887,-4.18 5.399,-5.459 6.487,-7.038c52.975,-77.304 128.646,-100.033 216.933,-86.462c102.025,15.7 167.317,87.12 183.984,196.4c3.958,25.912 5.92,51.929 5.9,78.125c-0.059,108.804 -0.23,217.6 0.233,326.4c0.071,12.254 -2.946,15.849 -15.504,15.695c-56.996,-0.683 -114.021,-0.675 -171.029,0c-12.471,0.142 -15.663,-3.416 -15.6,-15.687c0.466,-101.475 0.304,-202.946 0.2,-304.413c-0.038,-23.062 -1.621,-45.979 -8.105,-68.308c-20.779,-71.633 -102.275,-96.779 -160.308,-49.146c-31.354,25.721 -43.612,59.742 -43.375,99.779c0.508,95.721 0.15,191.438 0.15,287.159c0,12.558 -0.7,25.154 0.213,37.637c0.8,10.85 -3.634,12.942 -13.463,12.875c-58.062,-0.391 -116.117,-0.433 -174.167,0.025c-10.537,0.079 -14.32,-2.058 -14.2,-13.642c0.85,-86.279 1.196,-172.595 1.23,-258.883c0.016,-106.187 -0.192,-212.362 -0.934,-318.537c-0.079,-11.625 2.354,-15.063 14.363,-14.93c58.062,0.65 116.116,0.555 174.171,0.063c10.454,-0.096 13.37,3.054 13.037,13.221c-0.721,21.879 -0.217,43.796 -0.217,69.666Zm-411.34,-374.519c77.154,0.083 127.279,61.196 108.992,132.871c-13.817,54.121 -69.792,85.275 -134.4,74.787c-68.621,-11.137 -106.875,-78.108 -81.588,-142.829c15.784,-40.421 56.175,-64.892 106.996,-64.829Z" style="fill:#231f20;"/></g></g></svg>