<svg width="10434" height="4538" viewBox="0 0 10434 4538" version="1.1" xmlns="http://www.w3.org/2000/svg">
<g>
<path d="M6164.75,2407.98c0,-5.125 79.125,-62.575 175.917,-127.641c245.875,-165.317 484.416,-369.392 737.458,-630.85c267.375,-276.25 362.709,-392.859 362.709,-443.575c-0,-82.267 -502.459,-611.071 -824.876,-868.092c-102.708,-81.871 -248.083,-188.638 -323.041,-237.246l-136.292,-88.308l437.042,-5.317l437.041,-5.283l150.959,123.071c340.583,277.649 628.541,588.845 843,911.087c126.708,190.458 129.041,168.763 -43.959,409.625c-236.958,329.829 -527.083,632.258 -842.583,878.375l-119.375,93.125l-427,0.162c-234.833,0.101 -427,-4.037 -427,-9.133Zm-684.583,-766.683c256.375,-180.267 317.417,-482.288 147.333,-729.092c-113.417,-164.596 -348.708,-255.325 -533.125,-205.579c-382.625,103.229 -521.667,555.179 -258.833,841.454c185.708,174.425 466.666,216.954 644.625,93.167l-0,0.05Zm-462.542,756.433c-272.5,-49.183 -456.958,-147.85 -662.046,-354.154c-430.542,-433.092 -467.492,-1084.15 -89.704,-1579.79c157.667,-206.795 374.541,-347.179 655.417,-424.258c287.292,-78.825 640.499,-26.146 907.542,135.342c246.957,149.296 426.791,372.808 527.333,655.387c43.708,122.934 51.25,177.004 51.625,369.783c0.375,196.326 -6.625,246.251 -53.876,382.851c-94.499,273.437 -297.333,528.487 -527.624,663.412c-217.25,127.367 -573.042,193.954 -808.667,151.429Zm-1778.77,-111.404c-307.621,-242.187 -652.604,-619.138 -873.55,-954.525c-73.658,-111.817 -74.358,-114.65 -44.087,-178.154c104.212,-218.463 613.466,-787.834 930.633,-1040.42l140.121,-111.562l434.683,5.283l434.638,5.283l-152.609,102.221c-236.591,158.433 -467.166,349.746 -693.004,575.129c-253.696,253.175 -431.446,466.196 -431.446,516.98c0,54.558 175.046,260.479 454.971,535.237c255.85,251.088 448.259,410.983 679.979,564.992c77.65,51.633 141.15,97.591 141.15,102.204c0,4.521 -192.391,8.283 -427.52,8.283l-427.567,0l-166.392,-130.954Zm6538.35,2231.63l0,-1119.05l107.958,0c102.084,0 107.959,2.675 107.959,49.083c0,49.717 26.792,65.563 49.25,29.184c30.041,-48.538 169.334,-97.879 276.375,-97.879l111.25,-0l-12.292,61.341c-6.75,33.705 -12.249,82.338 -12.249,107.992c-0,42.279 -8.375,46.604 -89.667,46.604c-103.584,0 -150.584,20.529 -239.209,104.404l-63.791,60.35l-0,757.975l-235.584,0Zm-5128.75,-524.633c-115.875,-289.108 -216.25,-541.142 -222.958,-560.05c-10.792,-30.237 1.625,-34.371 104.208,-34.371l116.5,0l144.708,364.446c79.626,200.471 149.709,367.542 155.792,371.329c6.084,3.763 77.25,-160.521 158.084,-365.083l147.041,-371.967l85.334,5.538l85.417,5.608l146.416,362.696c80.583,199.475 149.292,365.566 152.792,369c3.458,3.5 72.667,-159.788 153.833,-362.7l147.542,-369.063l119.833,-5.825c65.958,-3.216 119.875,-2.675 119.875,1.146c-0,3.817 -100.458,253.838 -223.25,555.588l-223.291,548.55l-169.792,-0l-140.959,-352.221c-77.541,-193.721 -148.624,-364.075 -158.125,-378.588c-11.708,-17.983 -64.791,93.767 -167.333,352.229l-150.208,378.58l-85.417,5.416l-85.334,5.417l-210.708,-525.675Zm-1522.14,-324.442l5.137,-849.158l215.934,0l5.137,849.158l5.133,849.075l-236.42,0l5.079,-849.075Zm-3126.32,849.075l-0,-1668.75l172.725,0l299.263,476.071c164.62,261.863 343.491,501.734 343.491,501.734c0,-0 66.525,-75.313 316.246,-471.175l313.408,-496.834l92.213,-5.983l92.196,-5.988l-0,1672.84l-122.721,-5.833l-122.738,-5.875l-9.804,-539.317l-9.8,-539.325l-234.187,367.533l-234.159,367.546l-165.716,0l-242.5,-377.95l-242.513,-377.879l-5.204,554.6l-5.221,554.583l-234.979,0Zm9325.62,-734.683c-0,-39.971 -93.125,-145.142 -158.417,-178.942c-125.208,-64.712 -301.917,-15.025 -386.375,108.692c-24.333,35.625 -44.166,72.229 -44.166,81.454c-0,9.171 132.458,16.679 294.458,16.679c241.667,0 294.5,-4.966 294.5,-27.883Zm-432.084,735.975c-156.791,-47.625 -277.041,-155.708 -350.958,-315.292c-98.291,-212.191 -54.166,-500.633 101.788,-665.137c143.254,-150.929 426.212,-207.65 612.962,-122.792c167.333,76.009 296.001,271.696 317.876,483.463l11.124,108.062l-874.254,0l12.458,62.129c29.171,145.65 193.463,270.738 355.671,270.738c86.375,-0 220.417,-53.084 262.542,-103.963c38.917,-47.041 65.417,-40.75 136.166,32.209l62.834,64.833l-65.5,63.375c-92.917,90.083 -240.125,141.167 -401.125,139.083c-72.791,-0.916 -154.458,-8.416 -181.5,-16.708l-0.084,-0Zm-893.499,-8.542c-81.001,-35.875 -179.709,-152.833 -204.625,-242.458c-11.333,-40.833 -20.626,-208.946 -20.667,-373.596l-0.083,-299.425l-157.084,0l0,-196.325l157.084,0l-0,-314.096l235.541,0l0,314.096l353.417,0l0,196.325l-353.417,0l0,315.054c0,308.217 1.042,316.009 48.209,363.175c39.5,39.542 67.708,48.213 156.708,48.213c117.792,-0 124.542,7.412 134.5,147.246l4.167,58.916l-147.251,4.542c-89.833,2.708 -170.374,-5.667 -206.499,-21.667Zm-975.584,-226.25c135.917,-69.333 143.583,-88.041 137.292,-335.983l-5.542,-221.408l-73.458,-59.4c-56.042,-45.255 -98.792,-61.425 -180.667,-68.238c-59,-4.896 -129.583,-3.275 -156.916,3.567c-69.625,17.437 -188.626,126.808 -220.125,202.342c-55.917,133.783 -16,332.841 84.291,420.62c114.125,99.959 286.417,124.25 415.125,58.5Zm-378.708,230.042c-225.292,-84.042 -380.625,-314.458 -382.375,-567.237c-1.375,-201.092 136.958,-427.151 315.958,-516.338c145.667,-72.637 362.584,-73.717 496.5,-2.55c111.042,59.075 109.834,58.954 109.834,9.8c-0,-34.496 13.083,-39.271 107.916,-39.271l108,0l0,1119.05l-108,0c-94.916,0 -107.958,-4.75 -107.958,-39.25c0,-48.791 -0.25,-48.791 -102.458,4.834c-96.667,50.666 -338.667,67.791 -437.417,30.958Zm-2709.33,-9.5c-80.742,-42.542 -144.921,-103.417 -182.992,-173.496c-25.017,-46.129 -33.55,-132.379 -39.304,-397.608l-7.392,-338.604l-153.162,-0l-0,-196.388l157.029,0l0,-314.096l235.625,0l-0,314.096l353.4,0l0,196.325l-353.4,0l-0,315.054c-0,308.217 1.033,316.009 48.187,363.175c39.309,39.338 67.78,48.213 154.692,48.213l106.563,-0l22.5,89.371c12.375,49.125 17.333,97.75 11,107.958c-19.25,31.167 -287.259,20.542 -352.746,-14Zm-1266.41,-708.542c-0.212,-38.521 -84.833,-146.795 -142.091,-181.683c-71.283,-43.45 -208.683,-51.95 -276.329,-17.062c-64.25,33.033 -131.521,98.858 -163.05,159.529l-28.104,53.979l304.829,-0c167.645,-0 304.775,-6.613 304.745,-14.763Zm-461.279,718.417c-164.533,-61.25 -317.712,-224.413 -362.621,-386.05c-52.062,-187.475 -2.641,-431.233 116.73,-575.996c177.662,-215.358 566.287,-235.35 772.862,-39.879c87.629,82.917 154.313,232.708 165.463,371.517l9.866,123.087l-871.862,0l13.341,44.142c33.038,109.529 79.83,179.179 152.909,227.554c65.887,43.625 100.854,52.254 211.321,52.254c118.021,0 142.241,-7.046 224.129,-64.712l91.808,-64.709l66.858,50.917c36.78,28.087 66.863,62.292 66.863,76.042c-0,35.583 -73.704,98.541 -176.696,151c-102.054,51.916 -380.787,72.166 -481.021,34.833l0.05,0Z" style="fill:#00b4d2;fill-rule:nonzero;"/>
</g>
</svg>