<svg width="6839" height="1459" viewBox="0 0 6830 1459" version="1.1" xmlns="http://www.w3.org/2000/svg">
<g>
<path d="M0,0l693.75,0c-0.042,231.25 0,462.5 -0.042,693.75l-693.708,0l0,-693.75Z" style="fill:#f25022;fill-rule:nonzero;"/>
<path d="M764.583,0l693.75,0c0,231.25 0.042,462.5 -0.041,693.75c-231.209,-0.042 -462.459,0 -693.667,0c-0.083,-231.25 -0.042,-462.5 -0.042,-693.75Z" style="fill:#80ba01;fill-rule:nonzero;"/>
<path d="M6256.04,264.333c63.959,-41.625 146.584,-45.5 218.668,-25.666c0.624,42.833 0.082,85.708 0.291,128.587c-34.25,-15.087 -74.542,-24.921 -110.583,-10.129c-28.584,11.333 -45.584,40.667 -50.042,70c-5.375,37.208 -1.875,74.917 -2.792,112.333c73.167,0.167 146.334,0.042 219.5,0.084c0.542,-47.5 -0.583,-95.042 0.625,-142.542c49.751,-14.167 98.959,-30.042 148.459,-44.958c0.416,62.583 -0.584,125.208 0.541,187.833c49.459,-0.708 98.959,-0.167 148.459,-0.333l-0,121.833c-49.667,-2.042 -99.375,-0.542 -149.042,-0.708c0.208,70.041 0.042,140.083 0.083,210.166c0.792,38.792 -2.083,77.792 2.459,116.459c2.75,22.791 11.041,48.041 32.416,59.833c35.792,20.042 81.209,11.292 114.084,-10.708l-0,123.041c-42.875,18.625 -90.792,24.292 -137.167,21c-44,-3.25 -89.584,-19.25 -118.292,-54.25c-33.166,-39.541 -41.708,-93.083 -42.375,-143.166c-0.374,-107.5 0.042,-215 -0.166,-322.542c-73.209,-0.042 -146.417,-0.083 -219.584,0.042c-0.083,168.708 -0.041,337.416 -0.041,506.125l-150.042,-0c0,-168.667 -0.208,-337.292 0.083,-505.959c-34.791,-0.666 -69.625,0.167 -104.416,-0.541c0.125,-40.042 0.291,-80.125 -0.084,-120.209c34.625,-0.791 69.292,-0.458 104,-0.208c2.542,-53.25 -5.583,-108.042 10.334,-159.917c13.458,-46.833 43.375,-89.083 84.624,-115.5Z" style="fill:#777;fill-rule:nonzero;"/>
<path d="M3043.62,273.083c30.25,-4.583 63,5.75 83.042,29.417c23.5,25.917 27.833,67.167 10.416,97.458c-19.25,34.167 -62.333,50.042 -99.875,41.834c-38.958,-7 -71.416,-43.209 -69.666,-83.584c-1.125,-42.5 34.416,-80.375 76.083,-85.125Z" style="fill:#777;fill-rule:nonzero;"/>
<path d="M1893.75,291.667l218.208,-0c67.913,172.458 136.334,344.75 204.334,517.208c17.375,43.125 33.625,86.75 51.833,129.542c87.375,-215.5 176,-430.459 262.708,-646.25c69.959,-1.125 139.959,-0.25 209.959,-0.417c-0.167,291.625 -0.084,583.25 -0.042,874.875c-50.5,-0.125 -100.958,0.417 -151.417,-0.292c0.542,-215.208 -0.041,-430.416 0.25,-645.666c0.084,-9.667 -0.25,-19.334 -0.916,-29c-2.959,4.5 -5.584,9.166 -7.875,14c-86.709,220.291 -175.084,439.958 -261.292,660.458c-35.917,1.292 -71.875,0.083 -107.833,0.667c-89.459,-220.292 -177.792,-441.084 -266.792,-661.542c-2.333,-4.583 -4.833,-9.042 -7.542,-13.333c-1.833,94.291 -0.291,188.666 -0.791,282.958c0.041,130.583 -0.084,261.167 0.041,391.75c-47.625,0.125 -95.25,-0 -142.833,0.042c-0.042,-291.667 -0.083,-583.334 0,-875Z" style="fill:#777;fill-rule:nonzero;"/>
<path d="M3456.54,538.958c72.416,-20.625 150.5,-19.791 222.875,0.667c14.916,4.167 29.375,9.958 42.791,17.833c-0.833,47.792 0,95.625 -0.458,143.459c-48.375,-36.959 -109.75,-60.375 -171.25,-52.625c-48.833,4.416 -95.417,29.75 -124.625,69.208c-37.542,48.917 -46.208,113.875 -39.75,173.708c4.833,46.834 24.208,93.625 60.625,124.667c37.833,33.625 90.875,45.542 140.375,41.792c48.917,-5.625 95.083,-26.334 134.625,-55.25c0.417,45.291 -0.208,90.583 0.333,135.875c-61.333,36.5 -134.875,45.916 -205.083,42.458c-71.833,-3.792 -143.458,-31 -195.458,-81.5c-56.5,-54.458 -87.167,-132.125 -90.792,-209.917c-3.667,-80.875 12.792,-165.25 59.333,-232.791c39,-57.625 100,-98.417 166.459,-117.584Z" style="fill:#777;fill-rule:nonzero;"/>
<path d="M4473.08,528.167c72,-9.167 147.959,-5.084 214.792,25.333c58,26.167 105,74.542 131.042,132.458c27.791,61.667 34.541,130.917 29.833,197.792c-4.625,65.292 -25.125,130.708 -65.958,182.583c-41.792,55.084 -104.792,92.417 -172.25,106.292c-57.667,12 -118,11.958 -175.667,-0.167c-69,-14.75 -132.875,-54.791 -173.333,-113.041c-47.5,-67.5 -61,-153.334 -54.959,-234.209c4.084,-68.625 25.417,-137.791 69.246,-191.625c48.004,-60.291 121.629,-95.875 197.254,-105.416Z" style="fill:#777;fill-rule:nonzero;"/>
<path d="M5095.5,529.417c69.375,-12.209 142,-3.25 207.667,21.625c0.083,46 -0,91.958 0.041,137.916c-45.875,-31.541 -101.916,-48.5 -157.583,-46.541c-28.042,1.083 -58.875,12.958 -71.667,39.625c-10.166,26.375 -3.125,60.958 21.75,76.75c42.542,28.458 93.292,40.541 137.375,66.041c34.709,19.5 68.375,45 85.958,81.75c33.042,68.834 19.042,159.792 -39.041,211.125c-55.458,51.834 -135.333,66.167 -208.792,63.417c-52.167,-3.375 -104.583,-13.667 -152.541,-35c0.208,-48.375 -0.292,-96.708 0.25,-145.042c40.333,29.292 86.875,50.25 136.125,58.75c34.291,5.584 71.583,5.834 103.542,-9.5c30.583,-15.208 36.083,-58.666 17.916,-85.25c-17,-20.5 -41.958,-31.791 -65.5,-42.875c-44.208,-19.875 -90.667,-36.5 -129.5,-66.291c-27.292,-21.292 -47.958,-51.292 -56.042,-85.125c-12,-49.875 -8.25,-106.084 20.75,-149.667c33.125,-50.792 90.667,-81.25 149.292,-91.708Z" style="fill:#777;fill-rule:nonzero;"/>
<path d="M5668.96,527.958c74.874,-9.291 154.374,-4.25 222.708,30.25c59.583,29.792 105.791,83.625 128.875,145.875c18.041,47.625 24.375,99.042 23.333,149.75c0.125,75.75 -20.333,153.5 -67.875,213.584c-44.5,58.166 -112.583,95.958 -184.458,107.833c-70.292,11.375 -144.542,8.417 -211.334,-17.875c-67.666,-26.625 -123.916,-80.958 -152.416,-147.875c-29.709,-68.208 -32.834,-144.958 -23.584,-217.833c9.709,-72.875 42.709,-144.125 98.959,-192.584c46.083,-40.458 105.417,-63.375 165.792,-71.125Z" style="fill:#777;fill-rule:nonzero;"/>
<path d="M4057.71,549.167c41.417,-24.875 94.042,-26.959 139.25,-11.75c-0.208,50.041 0,100.083 -0.125,150.125c-29.583,-19.167 -66.5,-27.375 -101.416,-23.834c-42.584,4.834 -76.334,37.542 -93.834,75.042c-19,39.708 -22.583,84.625 -21.375,128.042c0,99.958 0.042,199.916 0,299.875l-147.916,-0c-0.125,-208.917 0.166,-417.875 -0.125,-626.792c49.375,-0.625 98.75,-0.375 148.125,-0.125c-0.209,35.875 -0,71.75 -0.125,107.667c16.041,-39.042 39.916,-76.959 77.541,-98.25Z" style="fill:#777;fill-rule:nonzero;"/>
<path d="M2981.17,539.75c49.75,-0.208 99.541,-0.708 149.291,0.25c-0.583,208.875 -0.041,417.792 -0.25,626.667l-148.958,-0c-0.125,-208.959 0.042,-417.917 -0.083,-626.917Z" style="fill:#777;fill-rule:nonzero;"/>
<path d="M4517.83,647.25c45.084,-2.958 93.084,9.792 125.5,42.583c34.667,34.084 48.083,83.542 51.792,130.709c2.667,51.625 0.542,105.416 -21.125,153.25c-14.334,32.25 -40.583,59.5 -73.709,72.416c-38.749,14.875 -82.291,15.75 -122.291,5.375c-40.709,-10.708 -75.25,-40.125 -94.042,-77.583c-24.166,-48.25 -27.791,-104.042 -22.791,-156.958c4.541,-48.125 21.291,-97.625 57.958,-130.834c26.583,-24.833 62.834,-36.958 98.708,-38.958Z" style="fill:#fefefe;fill-rule:nonzero;"/>
<path d="M5709.46,647.375c42.375,-2.958 87.626,6.833 120.209,35.458c30.041,24.917 46.666,62.25 54.291,99.834c8.584,44.083 8.5,89.708 1.25,134c-5.75,33 -17.167,65.916 -38.791,92.041c-21.792,26.25 -54.209,42.25 -87.667,47.167c-35.917,5.375 -73.75,2.792 -107.333,-11.667c-36.25,-15.333 -64.334,-46.708 -79.125,-82.791c-17.792,-43 -21.334,-90.625 -17.792,-136.625c3.417,-44.542 16.042,-90.25 45.458,-124.875c26.834,-32.334 68.001,-50.209 109.5,-52.542Z" style="fill:#fefefe;fill-rule:nonzero;"/>
<path d="M6680.12,660.667c49.667,0.166 99.375,-1.334 149.042,0.708l-0,375.042c-32.875,22 -78.292,30.75 -114.084,10.708c-21.375,-11.792 -29.666,-37.042 -32.416,-59.833c-4.542,-38.667 -1.667,-77.667 -2.459,-116.459c-0.041,-70.083 0.125,-140.125 -0.083,-210.166Z" style="fill:#fefefe;fill-rule:nonzero;"/>
<path d="M0,764.542c231.25,0.083 462.5,-0.042 693.75,0.083c0.042,231.25 0,462.458 0,693.708l-693.75,0l0,-693.791Z" style="fill:#02a4ef;fill-rule:nonzero;"/>
<path d="M764.625,764.625c231.208,-0.083 462.458,-0.042 693.708,-0.042l0,693.75l-693.75,0c0.042,-231.25 -0.041,-462.5 0.042,-693.708Z" style="fill:#ffb902;fill-rule:nonzero;"/>
</g>
</svg>