<svg width="160" height="80" viewBox="0 0 160 80" xmlns="http://www.w3.org/2000/svg"><title>nok_logo</title><g fill="none"><path fill="#D71920" d="M0 80h80V0H0z"/><g fill="#fff"><path d="M39.155 8.047c.968 1.101 1.558 2.715.994 4.141-.294.592-.723 1.075-1.235 1.558-.458.162-1.13 1.157-1.478.189-.834-.941-1.264-2.205-.995-3.469.35-1.13 1.426-1.987 2.446-2.472l.269.053zM48.357 11.023c1.182.779 2.176 1.989 2.07 3.44.026.781-.109 1.48-.323 2.152-.622-.011-1.059-.256-1.579-.446-1.597-.59-2.589-2.432-2.534-4.179 0-.618.187-1.235.456-1.773.672.134 1.318.43 1.91.806zM45.166 16.646a4.564 4.564 0 0 1-.587 2.504.498.498 0 0 1-.179.381c-1.458-.331-2.885-1.557-3.142-3.038-.331-1.15-.077-2.605.485-3.653.179-.307.461 0 .666.077 1.125.51 1.966 1.454 2.555 2.53l.203 1.2zM35.744 14.786c-.035.288.194.603-.027.872a4.861 4.861 0 0 1-3.434-.573c-1.398-.765-2.422-2.315-2.272-3.963.083-.408.642-.29.96-.326.55.005 1.117.099 1.667.24 1.637.584 2.89 1.981 3.106 3.75zM26.678 13.53c.67 1.398.538 3.307-.163 4.651-.349.699-.914 1.291-1.531 1.776-.357-.192-.51-.512-.672-.782-.565-.885-.779-1.96-.808-3.037.029-1.504 1.264-2.795 2.581-3.387.379.053.403.509.594.779zM58.346 14.222c-.107.432-.51.755-.861 1.104-1.666 1.318-3.898 1.802-6.13 1.264l-.082-.08c.325-1.318 1.077-2.582 2.365-3.174 1.533-.565 3.443-.107 4.707.886zM38.41 16.012c1.507.995 2.709 2.502 2.376 4.366-.152 1.048-.638 1.941-1.074 2.886-.306.077-.536-.307-.792-.434-1.405-.973-2.144-2.554-1.89-4.293a6.044 6.044 0 0 1 1.098-2.63l.282.104zM60.811 15.274c.485 1.558.485 3.387-.701 4.622-.832.888-1.934 1.4-2.984 1.75-.214-.245-.08-.565-.187-.862-.269-2.096.296-4.248 2.126-5.432.454-.294 1.664-1.344 1.746-.078zM23.155 19.1c.701 1.067.907 2.89.424 4.24-.358.917-1.072 1.733-1.733 2.419l-.077.014c-1.146-1.63-2.216-3.91-1.12-5.898.306-.611.84-1.07 1.325-1.581.515-.416.731.098 1.181.805zM43.691 21.246c.656.99.994 2.176.846 3.459-.046 1.331-.99 2.515-2.152 3.195-.219.046-.678.411-.725-.072-.365-.874-.486-1.84-.581-2.834.072-.29.022-.675.17-.965.24-1.237 1.256-2.179 2.323-2.784h.118zM63.502 21.182c.141.906-.256 1.781-.622 2.574-1.16 1.782-3.426 2.038-5.293 1.586-.341-.171-.762-.171-1.046-.426.31-.906 1.16-1.586 1.813-2.237 1.47-1.048 3.112-1.611 5.037-1.555l.112.058zM67.099 22.807c.592 1.184.725 3.011-.134 4.115-.323.565-.861 1.048-1.397 1.395-.501-.278-.565-.509-.808-.778-1.021-1.531-.805-3.818.109-5.323.269-.35.456-.997.994-.968.592.376.914 1.021 1.237 1.558zM28.525 25.278c.84 1.299.461 3.062.155 4.514-.206.064-1.178-.445-1.496-.586l-.621-.382c-1.083-1.035-1.861-2.374-1.502-3.978.203-.638.278-1.352.739-1.834 1.144.278 1.984 1.298 2.725 2.266zM18.315 23.343l.214.242c.699.805.888 1.882 1.13 2.877 0 .162-.059.184-.195.211-1.694.054-4.106.299-4.994-1.582-.349-.728-.619-1.533-.619-2.339.834-.35 1.776-.403 2.77-.323.645.082 1.291.349 1.694.915zM39.834 26.038c.29.579.582 1.138.582 1.84-.485.339-1.09.339-1.67.435-.653.046-1.379.072-1.962-.291-1.21-.653-2.152-1.936-2.176-3.29.531-.267 1.088-.387 1.694-.459 1.402.022 2.805.459 3.531 1.765zM55.677 25.582c.203 1.45.33 3.158-.739 4.278-.789 1.021-1.962 1.35-3.134 1.606l-.126-.205c-.152-1.784-.051-3.667 1.451-4.814.662-.509 1.478-.79 2.267-1.045.128-.026.23.077.282.179zM49.688 28.306c.483.994.834 2.07.805 3.227-.752.24-1.614-.056-2.392-.19-1.211-.323-2.232-1.478-2.365-2.741-.218-.754-.054-1.643.053-2.368 0-.51.59-.429.914-.322 1.21.214 2.528 1.21 2.986 2.394zM34.515 28.649c.557.894.75 1.984.75 3.122l-.098.048c-1.598.144-3.291-.048-4.136-1.526-.365-.699-.562-1.086-.667-2.176-.046-.59.016-.816.062-1.21l.168-.098c1.598-.122 2.974.629 3.92 1.84zM24.832 28.289c.941 1.146 1.043 2.853.712 4.33-.592-.085-.966-.197-1.477-.357-.96-.302-1.91-1.174-2.347-1.877l-.254-.701a5.627 5.627 0 0 1-.021-1.752c.056-.352.178-.688.28-1.045 1.197.077 2.214.637 3.107 1.402zM62.771 26.866c.018.35-.115.603-.24.97-.915 1.882-2.877 2.795-4.867 2.822-.458.029-.861-.027-1.21-.162.107-1.507.565-3.28 2.205-3.87 1.398-.458 2.822-.323 4.112.24zM20.056 28.346c.229.048-.064.587-.182.832-.626 1.358-1.931 2.557-3.442 2.61-1.174.078-2.088-.235-3.026-.678-.235-.235-.757-.392-.653-.782 1.147-1.328 2.763-2.035 4.408-2.322 1.043-.051 1.955.106 2.894.341zM70.205 29.961c.88.822 1.645 1.896 1.784 3.086-.112.251-.451.226-.734.251-1.67.173-3.51-.112-4.586-1.555a3.907 3.907 0 0 1-.877-2.15c1.333-.656 3.283-.707 4.413.368zM64.837 29.599c.114.819.008 1.534-.187 2.296-.195.742-.338 1.254-.974 1.806-.962 1.048-2.376 1.19-3.65 1.389-.312-.682-.189-1.32-.058-1.954.227-1.387 1.331-2.858 2.717-3.368.622-.254 1.301-.48 2.038-.538l.114.368zM28.736 30.942c.942 1.171 1.222 2.75 1.12 4.254-.178 1.146-.638 2.242-1.453 3.107-.126.126-.357.075-.434-.051-.661-.686-1.298-1.451-1.552-2.342-.125-.79-.219-1.635.102-2.395.408-1.019 1.197-2.064 2.216-2.573zM14.278 33.914c.608 1.048.554 2.317.666 3.534-.029.166-.112.36-.306.304-1.632-.194-3.456-.746-4.091-2.429-.443-1.134-.387-2.738.221-3.758 1.466.192 2.765 1.021 3.51 2.349zM58.901 33.644c-.686 1.235-2.032 1.646-3.322 1.782-.194-.136-.355.056-.549.029-1.51-.248-2.883-1.456-3.211-2.966.851-.466 1.947-.52 2.992-.659 1.563.054 3.101.522 4.09 1.814zM35.427 34.738c.35.608.467 1.336.467 2.04-.917.258-2.088.189-3.003-.07-1.386-.517-2.066-2.064-2.138-3.498.072-.282-.117-.797.402-.658 1.666.046 3.403.634 4.272 2.186zM51.032 33.039c-.058 1.699-.566 3.483-2.21 4.246-1.074.309-2.178.565-3.31.282-.114-.877.171-1.725.538-2.491.933-1.669 2.829-2.206 4.67-2.349.197-.056.312.142.312.312zM71.211 36.066l-.058.2c-1.048.934-2.349 1.498-3.821 1.301-1.302-.312-2.616-1.285-3.358-2.451.531-.512.656-.568 1.037-.747 1.33-.765 3.254-.707 4.558.141.566.454 1.216.963 1.642 1.557zM54.587 37.991c.738 1.443.37 3.058.141 4.587l-.17.112c-1.387-.339-2.915-1.048-3.339-2.574-.424-1.275-.283-3.059.397-4.219 1.131.37 2.378.933 2.971 2.094zM60.443 36.522c.23.058.346-.173.52-.203.778-.288 1.787-.374 2.507.058 1.326.923 1.498 2.68 1.184 4.179-.262 1.155-.782 2.482-1.963 2.997-1.586.779-3.517.576-4.986-.227-.578-.462-.952-.954-1.326-1.557-.634-1.442-.749-3.634.432-4.872.779-.634 1.73-1.038 2.768-.779.317.059.578.29.864.405zM71.616 39.295c.304.203-.104.408-.128.638-.995 1.502-2.651 2.344-4.434 1.986-.558-.152-1.171-.126-1.629-.458-.075-.357.28-.586.381-.917.562-1.122 1.706-1.91 2.981-1.885 1.045-.051 1.962.229 2.829.635zM16.022 40.306c-.162.458-.701.645-1.075.914-1.373.834-3.362 1.21-4.866.43a7.144 7.144 0 0 1-1.373-.861l.054-.269c1.264-1.669 3.44-2.178 5.35-1.613.699.322 1.395.754 1.909 1.398zM28.424 39.374c.256 1.174-.205 2.272-.768 3.216-1.098 1.408-2.782 1.763-4.469 1.814-.067-.37-.048-.478-.019-.77.155-1.546 1.016-2.984 2.368-3.776.843-.434 1.867-.666 2.888-.485zM19.979 43.401c.64 1.15.488 2.837.128 4.062-.254.178-.587 0-.842-.075-1.302-.488-2.478-1.765-2.682-3.144-.051-.538-.138-1.165.021-1.675.109-.346.157-.725.362-1.005 1.2.179 2.451.637 3.013 1.837zM15.453 42.814c.15 1.627-.23 3.358-1.784 4.149-1.019.534-2.291.638-3.464.534-.126-.328 0-.738.077-1.093.254-.944.56-1.91 1.453-2.522.994-.79 2.189-1.019 3.438-1.147l.28.078zM69.589 44.407c.408.765.586 1.63.637 2.522-.587.227-1.317.141-1.962.099-1.197-.203-2.47-.811-3.032-2.01a5.277 5.277 0 0 1-.355-2.242c.738-.202 1.502.102 2.19.181.968.176 1.909.558 2.522 1.45zM40.888 29.55c.23.056.346-.174.517-.203.781-.288 1.789-.374 2.509.059 1.326.92 1.499 2.678 1.182 4.179-.259 1.154-.779 2.478-1.96 2.997-1.586.778-3.517.576-4.987-.23-.576-.461-.952-.95-1.325-1.555-.635-1.443-.752-3.634.432-4.872.778-.634 1.728-1.038 2.766-.778.318.058.576.288.866.403zM50.546 18.353c.229.056.347-.173.518-.202.778-.29 1.787-.376 2.507.056 1.328.923 1.499 2.682 1.184 4.181-.261 1.154-.778 2.48-1.96 2.997-1.587.778-3.518.576-4.989-.23-.576-.462-.95-.952-1.325-1.555-.635-1.443-.75-3.634.432-4.87.778-.637 1.73-1.04 2.768-.779.315.056.576.288.864.403zM31.629 17.209c.229.058.344-.176.517-.203.779-.288 1.787-.374 2.509.058 1.326.923 1.499 2.68 1.181 4.181-.259 1.15-.778 2.478-1.96 2.997-1.584.779-3.517.576-4.986-.23-.578-.461-.954-.952-1.326-1.557-.634-1.44-.749-3.632.432-4.872.779-.635 1.731-1.035 2.768-.779.317.058.574.29.866.406zM20.496 33.257c.23.061.344-.173.517-.2.779-.288 1.789-.374 2.509.058 1.325.923 1.499 2.682 1.181 4.179-.259 1.154-.778 2.478-1.96 2.998-1.584.778-3.515.576-4.986-.232-.578-.461-.952-.95-1.325-1.557-.637-1.44-.75-3.63.432-4.87.778-.635 1.728-1.037 2.766-.779.317.059.578.288.866.403z"/><path d="M34.718 54.378c-2.01.482-3.989.822-5.944 1.472l-.112.197c.198.509.17 1.104.453 1.557 1.416 0 2.632-.538 3.989-.594.654-.17 1.389-.17 1.982-.51.341-.509.141-1.075.086-1.64-.086-.17-.114-.594-.454-.482zm10.408-2.925c-1.582.96-3.256 1.922-5.179 2.122-.17.056-.368.17-.31.397.453.794 1.53.282 2.264.253.312.173.171.566.198.875-.517.56-1.046.541-1.557.797-1.613.763-1.246 2.688-1.584 4.131.48.454 1.245.426 1.838.651l.256-.058c.877-1.928 1.443-3.99 2.178-6 .114-.397.538-.368.821-.538.227-.03.483-.283.68-.056l.395 2.262c.189.291.142.31.314.37 2.262.859 3.877.794 5.8 1.302.198.054.509.085.68-.03.197-.478.339-.987.454-1.525l-.171-.2c-.736-.229-1.472-.454-2.235-.678-.114-.2-.398.027-.512-.2-1.13-.338-2.349-.482-3.338-1.075-.482-.763-.51-1.728-.738-2.574-.027-.141-.056-.314-.254-.226zm-.384-2.538c.053-.282-3.726 1.907-5.678 2.669.027.059-.029.144.058.171.074.051.139.058.168.029 2.01 0 3.992-.422 5.69-1.387.027-.285.141-.678 0-.963l-.237-.518zm-.826-2.266c-1.421 1.019-2.944 1.587-4.528 2.154-.197.024-.453 0-.538.168 0 .226.283.085.453.141 1.867-.056 3.538-.538 5.15-1.219.597-.194.277-.918.256-1.44-.198-.509-.456-.043-.794.197zm.341-2.8c-1.898 1.163-3.906 2.006-6.002 2.688 0 .085.029.112.085.168 2.125.056 3.907-.818 5.802-1.387.653-.112.312-.902.37-1.272-.029-.112-.114-.256-.254-.197zm-.198-2.547c-1.896.99-3.821 1.95-5.803 2.776v.08c.454.114.907-.112 1.358-.08 1.614-.344 3.227-.766 4.728-1.418l.029-1.16c-.029-.171-.171-.226-.312-.198zM32.752 38.18c1.048.565 2.243.987 3.218 1.466.389-.07.227-.565.235-.845l.058-.621c.678-.229 1.528-.397 2.235-.202.114.539-.104.934.094 1.472.467.098.797-.062 1.258-.205 1.274-.453 2.429-.787 3.731-1.184.446-.021.602.294 1.275.69 1.386-.141 3.01.05 4.37.077.338.141.846-.027 1.131.256 0 .738-.171 1.442-.341 2.15l-.226.141-3.171-.056-.112.114c.112 3.734.453 7.384 1.387 10.898.056.338.31.621.65.678l4.501 1.328c1.133 0 2.208-.451 3.283-.707 1.84-.168 3.397.678 5.123 1.019.933-.141 1.67-.966 2.747-.763 1.187.114 2.29.622 3.422.989.254.171.114.568.029.821-.88 2.125-2.208 4.16-3.907 5.829-1.925 1.954-3.821 3.797-6.227 5.096-1.925 1.075-3.891 2.029-5.939 2.819-1.094.426-2.238.691-3.371 1.003a43.756 43.756 0 0 1-10.245.875c-.552-.056-.411.034-1.578-.128-2.758-.282-5.299-1.229-7.819-2.05-1.47-.794-3.058-1.304-4.443-2.266-1.811-1.328-3.821-2.603-5.379-4.331-1.923-1.894-3.762-3.96-4.754-6.366-.027-.568.651-.538.992-.762 2.744-.71 5.461-1.416 8.291-1.926 1.245.029 2.066 1.16 3.398.934 2.546-.794 5.178-1.331 7.781-2.011l.027-.538c-.366-1.954-.846-3.819-.933-5.888-.17-1.216-.198-2.603-.282-3.904-.99-.763-2.154-1.216-3.173-1.925l-.613-.459c.198-.906 1.323-2.453 1.323-2.453.25-.128 1.277.718 1.952.934z"/></g><path fill="#231F20" d="M80 80h80V0H80z"/><g fill="#fff"><path d="M89.012 39h3.214l4.561 7.45h.032V39h2.365v10.718H96.09l-4.681-7.632h-.032v7.632h-2.365zM105.771 42.118l-1.301 3.331h2.621l-1.32-3.331zM104.864 39h1.954l4.668 10.718h-2.669l-.923-2.269h-4.17l-.892 2.269h-2.607L104.863 39zM112.902 41.09h-3.063V39h8.489v2.09h-3.06v8.629h-2.366zM128.499 45.587c0 2.528-1.546 4.403-4.518 4.403-2.985 0-4.531-1.875-4.531-4.403V39h2.365v6.496c0 1.315.908 2.315 2.166 2.315 1.242 0 2.153-1 2.153-2.315V39h2.365v6.587zM133.03 43.437h1.395c.863 0 1.985-.029 1.985-1.197 0-1.075-.971-1.242-1.834-1.242h-1.546v2.438zM130.665 39h4.154c2.196 0 4.047.757 4.047 3.256 0 1.496-.804 2.662-2.318 2.936l2.728 4.526h-2.836l-2.243-4.285h-1.168v4.285h-2.365V39zM144.073 44.075c.037.488.407.675.647.898.314-.178.86-.446.849-.915-.013-.472-.266-.738-.748-.763-.482-.029-.783.381-.748.781zm.119 2.275c-.388.25-.96.691-.988 1.226-.032.56.585.965 1.08.941.638-.026 1.017-.341 1.352-.632l-1.443-1.534zm3.276 1.491l1.596 1.685h-1.946l-.598-.675c-.585.603-1.251.859-2.102.859-1.293 0-2.538-.707-2.538-2.144 0-.915.67-1.662 1.517-1.947-.466-.502-.788-.896-.788-1.603 0-1.29 1.093-1.816 2.233-1.816 1.102 0 2.081.554 2.081 1.754 0 .85-.607 1.485-1.323 1.859l.92.979.698-.95h1.757l-1.508 2zM89.012 55h2.366v4.453L95.548 55h3.089l-4.771 4.981 5.181 5.738h-3.303l-4.366-5.088v5.088h-2.366zM109.275 61.584c0 2.528-1.546 4.406-4.518 4.406-2.985 0-4.531-1.878-4.531-4.406V55h2.365v6.493c0 1.317.908 2.317 2.166 2.317 1.242 0 2.153-1 2.153-2.317V55h2.365v6.584zM111.441 55h2.363v8.538h4.38v2.181h-6.743zM120.909 57.09h-3.06V55h8.489v2.09h-3.063v8.629h-2.366zM136.51 61.584c0 2.528-1.548 4.406-4.518 4.406-2.988 0-4.531-1.878-4.531-4.406V55h2.363v6.493c0 1.317.91 2.317 2.168 2.317 1.243 0 2.153-1 2.153-2.317V55h2.365v6.584zM141.04 59.437h1.395c.865 0 1.985-.03 1.985-1.197 0-1.075-.971-1.24-1.834-1.24h-1.546v2.437zM138.675 55h4.156c2.196 0 4.045.755 4.045 3.256 0 1.496-.804 2.662-2.318 2.934l2.725 4.528h-2.832l-2.243-4.285h-1.168v4.285h-2.365V55z"/></g></g></svg>