<svg width="766" height="126" viewBox="0 0 766 126" version="1.1" xmlns="http://www.w3.org/2000/svg">
<rect id="Artboard1" x="0" y="0" width="765.376" height="125.338" style="fill:none;"/>
<clipPath id="_clip1">
<rect x="0" y="0" width="765.376" height="125.338"/>
</clipPath>
<g clip-path="url(#_clip1)">
<g>
<path d="M138.261,96.647l0.162,-91.804l35.763,-0.154l0.158,122.296l-62.262,-0l-74.717,-92.288l-0.158,91.963l-35.925,0.325l-0.321,-122.142l0.479,-0.154l62.267,-0l74.554,91.958Z" style="fill:#223e99;fill-rule:nonzero;"/>
<path d="M575.716,4.842l0.317,122.142l-38.158,-0l-0.163,-121.979l0.321,-0.317c12.612,-0 25.229,-0.163 37.683,0.154" style="fill:#223e99;"/>
<path d="M404.72,63.753l0.163,0.159l4.629,-3.83l61.145,-55.241l50.775,-0l-69.929,59.233l0.163,0.638l78.704,61.95l-55.404,0.325l-69.917,-62.596l-0.329,0.487l-0,62.109l-38.154,-0l-0,-122.146l38.154,-0l-0,58.912Z" style="fill:#223e99;"/>
<path d="M232.141,33.585c-3.196,0.634 -7.187,1.913 -7.666,5.584c-0,18.2 -0.48,36.721 0.32,54.758c1.117,3.038 4.471,2.721 6.863,3.508l68.975,0.163c5.904,-0.479 12.933,0.962 16.125,-4.946l0.158,-51.562l-0.483,-3.996c-0.954,-2.396 -3.35,-2.721 -5.425,-3.354l-78.867,-0.155Zm74.875,-30.183c15.809,0.638 32.888,1.758 41.35,17.408c1.917,4.305 2.875,8.934 2.713,14.209l-0.159,66.412c-0.475,8.946 -6.708,16.767 -14.366,21.079c-16.604,7.184 -36.721,5.43 -56.042,5.9c-22.829,-0.316 -46.296,1.121 -67.533,-2.712c-9.417,-1.438 -19.475,-9.258 -22.029,-18.675l-1.28,-7.667l0.321,-70.4c0.317,-8.946 8.142,-16.766 15.646,-20.762c12.292,-5.109 27.142,-4.471 41.35,-5.109l60.029,0.317Z" style="fill:#223e99;"/>
<path d="M674.853,35.498l-23.471,43.587l46.946,0c-7.821,-14.525 -15.654,-29.216 -23.475,-43.587m91.484,91l-0,0.487l-42.146,0c-3.829,-7.037 -7.663,-13.737 -11.179,-20.758l-0.796,-0.321l-74.879,0l-11.496,20.754l-42.621,0.325l67.208,-122.141l49.338,-0l66.571,121.654Z" style="fill:#223e99;"/>
</g>
</g>
</svg>