<svg width="2029" height="1313" viewBox="0 0 2029 1313" version="1.1" xmlns="http://www.w3.org/2000/svg">
<rect id="Artboard1" x="0" y="0" width="2028.64" height="1312.67" style="fill:none;"/>
<clipPath id="_clip1">
<rect x="0" y="0" width="2028.64" height="1312.67"/>
</clipPath>
<g clip-path="url(#_clip1)">
<g>
<path d="M741.492,158.579c-162.946,181.538 -142.934,460.204 44.696,622.563c187.579,162.246 416.587,126.641 579.566,-54.892c162.875,-181.433 151.7,-440.925 -35.879,-603.237c-86.746,-75.03 -184.183,-111.859 -280.021,-111.85c-111.479,0.012 -220.775,49.862 -308.362,147.416Z" style="fill:url(#_Radial2);fill-rule:nonzero;"/>
<path d="M772.479,212.108c-156.179,136.459 -167.779,376.192 -25.775,535.488c141.988,159.342 383.779,177.871 540.009,41.421c156.037,-136.284 167.624,-376.159 25.633,-535.484c-78.163,-87.67 -186.609,-132.675 -294.313,-132.683c-87.95,-0.008 -175.4,29.988 -245.554,91.258Z" style="fill:url(#_Radial3);fill-rule:nonzero;"/>
<path d="M837.992,229.138c-129.884,102.883 -148.434,288.287 -41.4,414.07c107.062,125.734 299.15,144.242 429.05,41.334c129.737,-102.821 148.333,-288.263 41.333,-413.984c-60.525,-71.095 -148.221,-107.908 -236.487,-107.9c-67.876,0.009 -136.101,21.784 -192.496,66.48Z" style="fill:url(#_Radial4);fill-rule:nonzero;"/>
<path d="M896.897,120.256c13.829,3.65 22.283,17.679 18.754,31.317c-3.629,13.458 -17.729,21.525 -31.65,17.85c-13.879,-3.763 -22.292,-17.742 -18.754,-31.317c3.529,-13.583 17.754,-21.571 31.65,-17.85" style="fill:#fff;fill-rule:nonzero;"/>
<path d="M924.737,172.012c9.533,2.508 15.292,12.142 12.846,21.425c-2.488,9.396 -12.238,14.933 -21.754,12.379c-9.504,-2.562 -15.342,-12.125 -12.834,-21.483c2.496,-9.325 12.213,-14.867 21.742,-12.321" style="fill:#fff;fill-rule:nonzero;"/>
<path d="M957.468,220.462c6.237,1.608 9.971,7.916 8.462,14.075c-1.587,6.096 -8.025,9.779 -14.358,8.037c-6.187,-1.616 -10.008,-7.908 -8.408,-14.096c1.575,-6.087 8.004,-9.704 14.304,-8.016" style="fill:#fff;fill-rule:nonzero;"/>
<path d="M683.458,197.658c-140.391,205.75 -87.383,486.38 118.392,626.771c205.775,140.409 486.367,87.425 626.754,-118.341c140.413,-205.784 87.429,-486.392 -118.329,-626.775c-77.779,-53.08 -166.279,-78.525 -253.837,-78.53c-144.075,-0.004 -285.642,68.875 -372.98,196.875Zm1.146,100.521c7.567,-23.737 18.75,-47.346 33.342,-68.741c68.592,-100.521 177.858,-156.884 291.346,-162.4c79.65,-3.871 143.5,49.416 54.158,160.154c-100.429,124.466 -184.321,173.533 -264.125,187.783c-5.117,0.917 -10.408,1.363 -15.771,1.363c-56.146,0.004 -121.096,-48.8 -98.95,-118.159Zm344.942,119.046c89.196,-64.158 159.696,-105.083 224.475,-100.008c61.367,4.816 147.054,68.441 143.454,179.583c-1.837,57.267 -20.9,111.35 -61.042,168.65c-114.866,163.967 -357.441,200.213 -523.991,86.575c-113.238,-77.287 -169.638,-206.512 -158.725,-333.258c16.446,44.483 88.187,84.821 143.4,85.054c0.358,0.004 0.729,0.004 1.087,0.004c74.825,0.004 158.067,-33.858 231.342,-86.6Z" style="fill:url(#_Radial5);fill-rule:nonzero;"/>
<path d="M1236.11,1256.3c-18.392,-3.22 -29.242,-12.295 -32.208,-28.441c-0.538,-3.029 -0.809,-6.771 -0.809,-27.434l0,-30.804c0,-17.641 0.325,-22.825 0.929,-25.837c2.946,-13.934 12.817,-23.796 31.746,-27.579c5.575,-1.1 10.913,-1.7 44.004,-1.7l44.163,-0l-0,27.254l-45.688,-0c-24.812,-0 -28.22,0.462 -30.583,1.266c-4.612,1.571 -7.2,4.505 -8.487,8.288c-0.7,2.058 -0.984,6.296 -0.984,18.675l0,29.321c0,15.771 0.325,20.004 1.125,22.112c1.325,3.459 4.009,6.004 8.542,7.454c3.096,1.017 7.083,1.513 31.496,1.513l47.125,-0l-0,27.304l-49.396,0c-30.404,0 -35.663,-0.446 -40.975,-1.392" style="fill:#4e4e4e;fill-rule:nonzero;"/>
<path d="M1005.88,1171.12c0,-25.179 0.563,-27.337 1.684,-30.833c3.55,-11.242 12.533,-19.346 25.146,-23.246c5.504,-1.683 11.841,-2.579 41.904,-2.579l21.779,-0l-0,27.475l-22.521,-0c-20.321,-0 -23.525,0.529 -25.65,1.391c-3.15,1.271 -4.9,3.209 -5.842,5.096c-0.979,1.888 -1.141,4.271 -1.141,18.571l-0,90.746l-35.359,-0l0,-86.621Z" style="fill:#4e4e4e;fill-rule:nonzero;"/>
<rect x="1354.24" y="1151.25" width="0.004" height="0.004" style="fill:#4e4e4e;"/>
<path d="M1586.61,1197.2c-17.255,0 -25.717,-0.571 -31.155,-1.683c-16.3,-3.354 -27.075,-11.85 -30.441,-25.792c-0.7,-2.979 -1.084,-8.933 -1.084,-13.604l0,-1.204c0,-8.792 0.642,-13.642 1.863,-17.213c4.175,-11.971 15.008,-18.891 31.171,-21.712c7.104,-1.092 16.883,-1.529 45.066,-1.529l53.492,-0l0,27.433l-79.583,-0c-14.584,-0 -17.209,4.392 -17.209,13.929c0,8.513 2.05,14.3 17.488,14.3l21.262,0c19.955,0 24.971,0.529 30.121,1.538c20.075,3.775 29.304,14.362 32.334,26.87c0.779,3.321 1.12,9.7 1.12,14.925l0,1.671c0,6.142 -0.3,11.863 -0.941,15.013c-2.946,14.258 -9.946,23.241 -29.5,26.416c-5.538,0.921 -9.654,1.084 -35.2,1.084l-70.221,-0l-0,-27.329l80.55,-0c14.858,-0 20.279,-1.725 20.279,-16.6c0,-13.088 -6.2,-16.513 -20.567,-16.513l-18.845,0Z" style="fill:#4e4e4e;fill-rule:nonzero;"/>
<path d="M1418.78,1197.2c-17.333,0 -25.717,-0.571 -31.167,-1.683c-16.312,-3.354 -27.158,-11.85 -30.445,-25.792c-0.7,-2.979 -1.084,-8.933 -1.084,-13.604l0,-1.204c0,-8.792 0.642,-13.642 1.879,-17.213c4.121,-11.971 14.984,-18.891 31.13,-21.712c7.12,-1.092 16.925,-1.529 45.091,-1.529l53.442,-0l-0,27.433l-79.538,-0c-14.562,-0 -17.204,4.392 -17.204,13.929c0,8.513 2.025,14.3 17.421,14.3l21.346,0c19.933,0 24.946,0.529 30.121,1.538c20.058,3.775 29.279,14.362 32.316,26.87c0.78,3.321 1.121,9.7 1.121,14.925l0,1.671c0,6.142 -0.3,11.863 -0.966,15.013c-2.946,14.258 -9.93,23.241 -29.421,26.416c-5.596,0.921 -9.709,1.084 -35.263,1.084l-70.212,-0l-0,-27.329l80.541,-0c14.884,-0 20.238,-1.725 20.238,-16.6c-0,-13.088 -6.192,-16.513 -20.513,-16.513l-18.833,0Z" style="fill:#4e4e4e;fill-rule:nonzero;"/>
<path d="M91.831,1228.77c17.55,-0 25.179,-4.508 27.637,-12.063c0.671,-2.058 1.204,-4.895 1.204,-11.991l0,-4.146c0,-6.467 -0.55,-10.067 -1.254,-12.254c-2.687,-8.617 -10.991,-12.054 -27.346,-12.054l-34.95,-0.038c-32.87,0 -52.204,-15.496 -55.854,-37.096c-0.441,-2.562 -0.683,-8.187 -0.683,-16.837l-0,-2.229c-0,-7.642 0.162,-13.792 0.462,-16.105c2.855,-21.916 19.292,-34.279 47.334,-37.387c6.825,-0.925 19.754,-0.779 27.096,-0.779l71.058,-0l-0,29.229c-2.771,-0 -82.771,-0.046 -82.771,-0.046c-14.221,0 -22.525,2.946 -25.212,10.863c-0.663,1.962 -1.105,7.233 -1.105,13.329l0,2.516c0,6.584 0.363,11.1 0.842,13.038c2.458,9.667 11.075,12.662 27.179,12.662l34.338,-0.05c36.642,0 54.208,11.93 57.6,35.321c0.379,2.871 0.579,11.138 0.579,14.271l0,7.742c0,3.108 -0.158,11.296 -0.537,14.125c-2.809,22.008 -16.667,34.858 -42.18,38.087c-4.275,0.563 -16.466,0.804 -33.033,0.804l-78.563,0l0.001,-28.912l88.158,-0Z" style="fill:#4e4e4e;fill-rule:nonzero;"/>
<path d="M308.428,1202.41c0,12.875 -0.391,17.887 -1.162,19.833c-1.325,3.346 -3.792,5.817 -7.363,7.308c-2.725,1.121 -7.921,1.725 -24.537,1.725l-16.879,0c-17.246,0 -24.817,-0.562 -27.334,-1.808c-2.879,-1.425 -5.033,-3.792 -6.237,-7.183c-0.775,-2.117 -1.146,-10.142 -1.146,-25.5l-0,-23.184c-0,-14.737 0.3,-22.175 0.962,-23.9c1.317,-3.583 4.075,-6.033 8.375,-7.4c2.696,-0.862 8.755,-1.254 22.855,-1.254l18.791,0c11.292,0 20.8,0.329 23.388,0.996c5.404,1.425 8.229,4.238 9.487,8.379c0.559,1.834 0.8,9.688 0.8,24.109l0,27.879Zm33.134,-58.488c-3.513,-14.721 -12.938,-24.275 -33.134,-27.912c-5.116,-0.825 -10.762,-1.517 -36.262,-1.517l-13.096,0c-17.921,0 -26.633,0.492 -32.663,1.142c-21.191,2.654 -32.02,11.716 -35.75,27.358c-1.083,4.225 -1.183,9.954 -1.183,27.742l0,27.362c0,17.692 0.725,27.025 2.146,31.142c4.133,12.146 12.858,21.267 27.737,25.671c6.38,1.871 16.367,2.896 41.58,2.896l12.754,-0c23.666,-0 31.258,-0.792 37.166,-2.313c16,-4.142 26.23,-13.783 30.3,-28.204c1.046,-3.721 1.596,-11.5 1.596,-25.775l0,-27.075c0,-19.05 -0.387,-27.196 -1.191,-30.517" style="fill:#4e4e4e;fill-rule:nonzero;"/>
<path d="M1811.74,1202.41c-0,12.875 -0.4,17.887 -1.188,19.833c-1.321,3.346 -3.783,5.817 -7.358,7.308c-2.725,1.121 -7.884,1.725 -24.529,1.725l-16.909,0c-17.204,0 -24.787,-0.562 -27.271,-1.808c-2.929,-1.425 -5.054,-3.792 -6.283,-7.183c-0.7,-2.117 -1.1,-10.142 -1.1,-25.5l0,-23.184c0,-14.737 0.304,-22.175 0.946,-23.9c1.304,-3.583 4.029,-6.033 8.358,-7.4c2.725,-0.862 8.725,-1.254 22.867,-1.254l18.775,0c11.271,0 20.792,0.329 23.404,0.996c5.396,1.425 8.221,4.238 9.442,8.379c0.562,1.834 0.846,9.688 0.846,24.109l-0,27.879Zm33.129,-58.488c-3.525,-14.721 -12.929,-24.275 -33.129,-27.912c-5.134,-0.825 -10.775,-1.517 -36.305,-1.517l-13.079,0c-17.871,0 -26.608,0.492 -32.662,1.142c-21.184,2.654 -31.95,11.716 -35.784,27.358c-1.025,4.225 -1.15,9.954 -1.15,27.742l0,27.362c0,17.692 0.725,27.025 2.15,31.142c4.134,12.146 12.9,21.267 27.775,25.671c6.405,1.871 16.35,2.896 41.521,2.896l12.792,-0c23.667,-0 31.275,-0.792 37.167,-2.313c15.983,-4.142 26.254,-13.783 30.304,-28.204c1.041,-3.721 1.604,-11.5 1.604,-25.775l-0,-27.075c-0,-19.05 -0.383,-27.196 -1.204,-30.517" style="fill:#4e4e4e;fill-rule:nonzero;"/>
<path d="M856.585,1255.69c-19.596,-4.054 -36.625,-14.541 -40.712,-34.512c-0.605,-3.013 -0.946,-8.733 -0.946,-30.892l-0,-52.954c-0,-25.954 0.312,-32.796 1.266,-36.908c2.925,-12.375 12.2,-27.821 39.421,-32.934c5.896,-1.125 12.784,-1.75 49.183,-1.75l66.367,0l0,29.234l-70.858,-0c-25.929,-0 -31.196,0.521 -34.575,1.579c-4.996,1.608 -8.125,4.4 -9.679,8.504c-0.771,1.975 -1.13,4.467 -1.13,21.371l0,19.837l107.059,0l-0,28.288l-107.058,-0l-0,20.975c-0,19.162 0.416,21.546 1.32,23.721c1.675,3.946 4.875,6.525 9.846,8.008c3.571,1.067 7.925,1.579 34.217,1.579l72.042,0l-0,28.8l-64.88,0c-37.966,0 -44.287,-0.587 -50.883,-1.946" style="fill:#4e4e4e;fill-rule:nonzero;"/>
<path d="M374.955,1172.42c-0,-17.792 0.358,-24.917 1.033,-27.979c3.258,-14.475 13.971,-24.188 30.887,-28.033c5.484,-1.305 12.663,-1.946 35.509,-1.946l17.029,-0c21.437,-0 30.342,0.779 35.821,2.154c18.829,4.592 26.383,15.812 29.321,25.125c1.504,4.792 1.783,9.571 1.783,26.487l-0,89.413l-35.029,-0l-0,-90.317c-0,-10.879 -0.229,-15.454 -0.692,-17.137c-0.921,-3.5 -2.846,-5.671 -5.783,-6.909c-2.279,-0.97 -9.417,-1.383 -27.809,-1.383l-12.687,0c-18.4,0 -25.783,0.454 -28.108,1.496c-2.567,1.142 -4.242,2.996 -5.175,5.617c-0.6,1.716 -0.859,4.745 -0.859,18.316l0,90.367l-35.241,-0l-0,-85.271Z" style="fill:#4e4e4e;fill-rule:nonzero;"/>
<rect x="1130.21" y="1114.52" width="35.321" height="143.171" style="fill:#4e4e4e;"/>
<rect x="1130.21" y="1065.75" width="35.321" height="29.279" style="fill:#4e4e4e;"/>
<path d="M675.758,1119.65l0,79.192c0,14.312 -0.312,19.475 -0.983,21.354c-1.425,3.921 -4.392,6.729 -9.304,8.129c-2.388,0.708 -5.979,1.117 -20.288,1.117l-20.95,-0c-16.387,-0 -19.975,-0.684 -22.675,-1.946c-2.495,-1.196 -4.291,-2.858 -5.404,-4.996c-0.962,-1.937 -1.425,-5.187 -1.425,-20.175l0,-82.675l-35.058,0l-0,77.646c-0,25.462 0.3,28.075 0.862,30.996c3.021,14.804 13.38,22.875 28.742,26.262l0.129,0.042c8.867,1.958 12.067,1.904 36.363,1.904l16.154,0c30.587,0 34.229,-8.254 34.587,-9.212l0,16.283c0,9.425 -0.25,12.287 -0.779,14.337c-1.033,3.825 -3.421,6.546 -8.816,7.975c-2.93,0.8 -8.142,1.2 -30.125,1.2l-61.171,0l-0,26.367l63.266,0c32.484,0 37.596,-0.692 42.692,-1.962c16.825,-4.225 25.208,-14.755 27.938,-27.017c0.72,-3.258 1.104,-9.358 1.104,-30.292l-0,-134.529l-34.859,0Z" style="fill:#4e4e4e;fill-rule:nonzero;"/>
<path d="M1913.11,1255.42l-0,-88.096c-0,-13.571 0.237,-16.6 0.82,-18.317c0.921,-2.621 2.621,-4.475 5.192,-5.616c2.329,-1.042 9.708,-1.496 28.104,-1.496l12.629,-0c18.434,-0 25.592,0.416 27.88,1.383c2.891,1.238 4.808,3.408 5.779,6.908c0.437,1.684 0.658,6.259 0.658,17.138l0,88.096l35.058,-0l0,-87.192c0,-16.917 -0.316,-21.696 -1.82,-26.487c-2.93,-9.313 -10.45,-20.534 -29.267,-25.125c-5.492,-1.375 -14.421,-2.155 -35.838,-2.155l-17.008,0c-22.887,0 -30.062,0.642 -35.579,1.946c-16.871,3.85 -27.6,13.559 -30.804,28.034c-0.709,3.062 -1.092,10.191 -1.092,27.979l0,83l35.288,-0Z" style="fill:#4e4e4e;fill-rule:nonzero;"/>
</g>
</g>
<defs>
<radialGradient id="_Radial2" cx="0" cy="0" r="1" gradientUnits="userSpaceOnUse" gradientTransform="matrix(979.461,0,0,979.461,977.557,930.262)">
<stop offset="0" style="stop-color:#fff;stop-opacity:1"/>
<stop offset="0.13" style="stop-color:#dde684;stop-opacity:1"/>
<stop offset="0.36" style="stop-color:#68bd5b;stop-opacity:1"/>
<stop offset="0.56" style="stop-color:#49aa48;stop-opacity:1"/>
<stop offset="0.76" style="stop-color:#0b1911;stop-opacity:1"/>
<stop offset="1" style="stop-color:#0c8943;stop-opacity:1"/>
</radialGradient>
<radialGradient id="_Radial3" cx="0" cy="0" r="1" gradientUnits="userSpaceOnUse" gradientTransform="matrix(870.832,0,0,870.832,882.92,829.936)">
<stop offset="0" style="stop-color:#fff;stop-opacity:1"/>
<stop offset="0.13" style="stop-color:#8dc85d;stop-opacity:1"/>
<stop offset="0.37" style="stop-color:#0c8943;stop-opacity:1"/>
<stop offset="0.55" style="stop-color:#43ab53;stop-opacity:1"/>
<stop offset="0.83" style="stop-color:#0b1611;stop-opacity:1"/>
<stop offset="1" style="stop-color:#0d4621;stop-opacity:1"/>
</radialGradient>
<radialGradient id="_Radial4" cx="0" cy="0" r="1" gradientUnits="userSpaceOnUse" gradientTransform="matrix(528.137,0,0,528.137,872.694,286.463)">
<stop offset="0" style="stop-color:#fff;stop-opacity:1"/>
<stop offset="0.13" style="stop-color:#9ed080;stop-opacity:1"/>
<stop offset="0.29" style="stop-color:#55b450;stop-opacity:1"/>
<stop offset="0.48" style="stop-color:#0c8943;stop-opacity:1"/>
<stop offset="0.73" style="stop-color:#0f2f1b;stop-opacity:1"/>
<stop offset="1" style="stop-color:#0d4520;stop-opacity:1"/>
</radialGradient>
<radialGradient id="_Radial5" cx="0" cy="0" r="1" gradientUnits="userSpaceOnUse" gradientTransform="matrix(682.031,0,0,682.031,1148.61,184.378)">
<stop offset="0" style="stop-color:#fbfeff;stop-opacity:1"/>
<stop offset="0.39" style="stop-color:#e3e3e3;stop-opacity:1"/>
<stop offset="1" style="stop-color:#3d4344;stop-opacity:1"/>
</radialGradient>
</defs>
</svg>