<svg width="248" height="248" viewBox="0 0 248 248" version="1.1" xmlns="http://www.w3.org/2000/svg">
    <g id="Artboard1" transform="matrix(1,0,0,1,-534.788,-649.625)">
        <rect x="534.788" y="649.625" width="247.15" height="247.146" style="fill:none;"/>
        <clipPath id="_clip1">
            <rect x="534.788" y="649.625" width="247.15" height="247.146"/>
        </clipPath>
        <g clip-path="url(#_clip1)">
            <g transform="matrix(4.16667,0,0,4.16667,0.7875,0.625)">
                <g transform="matrix(1,0,0,1,0,83.135)">
                    <path d="M158.007,132.09C174.386,132.09 187.665,118.812 187.665,102.433C187.665,86.052 174.386,72.775 158.007,72.775C141.628,72.775 128.349,86.052 128.349,102.433C128.349,118.812 141.628,132.09 158.007,132.09" style="fill:rgb(228,27,35);fill-rule:nonzero;"/>
                </g>
                <g transform="matrix(1,0,0,1,0,80.556)">
                    <path d="M171.151,114.778L167.12,114.778L167.12,80.526C167.12,80.256 166.944,80.019 166.686,79.94C166.428,79.861 166.149,79.96 165.999,80.184L138.154,121.374C138.026,121.561 138.013,121.805 138.12,122.006C138.226,122.205 138.435,122.331 138.662,122.331L159.212,122.331L159.212,126.969C159.212,127.308 159.487,127.583 159.826,127.583L166.507,127.583C166.846,127.583 167.12,127.308 167.12,126.969L167.12,122.331L171.151,122.331C171.49,122.331 171.764,122.055 171.764,121.717L171.764,115.393C171.764,115.055 171.49,114.778 171.151,114.778M158.992,114.796L151.28,114.796L158.992,103.392L158.992,114.796" style="fill:white;fill-rule:nonzero;"/>
                </g>
            </g>
        </g>
    </g>
</svg>
